<?xml version="1.0" encoding="utf-8"?>
<!-- Generator: Adobe Illustrator 16.0.0, SVG Export Plug-In . SVG Version: 6.00 Build 0)  -->
<!DOCTYPE svg PUBLIC "-//W3C//DTD SVG 1.1//EN" "http://www.w3.org/Graphics/SVG/1.1/DTD/svg11.dtd">
<svg version="1.1" id="Layer_1" xmlns="http://www.w3.org/2000/svg" xmlns:xlink="http://www.w3.org/1999/xlink" x="0px" y="0px"
	 width="338.947px" height="280px" viewBox="0 0 338.947 280" enable-background="new 0 0 338.947 280" xml:space="preserve">
<path fill="#366572" d="M319.21,47.83c0,26.385-63.404,49.005-145.049,49.005c-81.641,0-147.827-21.39-147.827-47.774
	c0-33.822,66.187-41.431,147.827-41.431C255.806,7.629,319.21,16.928,319.21,47.83z"/>
<g>
	<path d="M302.897,70.089c-24.436,10.86-73.596,18.287-130.303,18.287c-59.852,0-111.298-8.273-134.132-20.13
		c-20.856,21.668-33.24,48.647-33.24,77.903c0,71.414,73.694,129.305,164.597,129.305c90.906,0,164.598-57.891,164.598-129.305
		C334.417,117.711,322.702,91.435,302.897,70.089z"/>
	<path fill="#0B1D20" d="M302.897,66.878c10.487-4.664,16.447-9.955,16.447-15.571c0-2.692-0.217-5.18-0.621-7.493
		c-6.693,17.27-69.543,30.805-146.129,30.805c-76.568,0-139.41-13.529-146.121-30.796c-0.404,2.313-0.627,4.795-0.627,7.484
		c0,4.89,4.529,9.533,12.616,13.731c22.834,11.856,74.28,20.127,134.132,20.127C229.302,85.166,278.462,77.739,302.897,66.878z"/>
	<path d="M172.595,70.127c73.682,0,134.146-13.025,140.586-29.639c0.375-0.969,0.6-1.948,0.6-2.938c0-3.199-2.031-6.288-5.758-9.209
		c-7.146-5.604-20.643-10.578-38.576-14.481c-25.283-5.505-59.344-8.888-96.852-8.888c-37.488,0-71.541,3.378-96.82,8.88
		c-17.98,3.913-31.502,8.9-38.643,14.52c-3.697,2.912-5.718,5.99-5.718,9.179c0,0.993,0.224,1.975,0.603,2.946
		C38.474,57.108,98.932,70.127,172.595,70.127z M60.488,29.955c5.911-4.65,17.099-8.777,31.979-12.016
		c20.922-4.553,49.102-7.348,80.127-7.348c31.039,0,59.229,2.798,80.152,7.354c14.842,3.231,26.01,7.348,31.926,11.985
		c3.082,2.418,4.764,4.973,4.764,7.621c0,0.819-0.186,1.629-0.496,2.431c-1.59,4.11-7.203,7.95-15.881,11.319l0,0l0,0
		c-6.326,2.455-14.279,4.658-23.535,6.53c-0.107,0.021-0.219,0.044-0.33,0.067c-3.604,0.721-7.398,1.395-11.367,2.013
		c-0.229,0.035-0.459,0.07-0.689,0.105c-1.834,0.281-3.699,0.554-5.605,0.809c-0.149,0.021-0.297,0.044-0.447,0.062
		c-2.058,0.275-4.154,0.539-6.289,0.785c-0.199,0.023-0.402,0.044-0.602,0.067c-1.865,0.211-3.763,0.413-5.686,0.601
		c-0.424,0.044-0.848,0.085-1.277,0.126c-4.242,0.404-8.605,0.753-13.084,1.043c-0.539,0.035-1.09,0.067-1.635,0.103
		c-1.834,0.111-3.685,0.214-5.553,0.305c-0.453,0.023-0.908,0.047-1.365,0.067c-2.252,0.105-4.529,0.193-6.832,0.267
		c-0.482,0.015-0.975,0.026-1.461,0.041c-1.869,0.056-3.756,0.097-5.652,0.132c-0.646,0.012-1.291,0.023-1.939,0.032
		c-2.355,0.032-4.725,0.056-7.115,0.056c-2.389,0-4.756-0.023-7.107-0.056c-0.654-0.009-1.299-0.021-1.947-0.032
		c-1.9-0.035-3.788-0.076-5.66-0.132c-0.479-0.015-0.965-0.023-1.441-0.038c-2.299-0.076-4.574-0.164-6.829-0.27
		c-0.47-0.021-0.937-0.047-1.406-0.07c-1.854-0.091-3.692-0.19-5.515-0.302c-0.55-0.035-1.1-0.067-1.645-0.103
		c-4.477-0.29-8.838-0.636-13.078-1.043c-0.428-0.041-0.852-0.082-1.273-0.126c-1.939-0.19-3.854-0.393-5.736-0.606
		c-0.18-0.021-0.363-0.038-0.544-0.062c-2.138-0.246-4.236-0.507-6.298-0.782c-0.158-0.021-0.312-0.044-0.469-0.064
		c-1.908-0.261-3.779-0.53-5.617-0.812c-0.213-0.032-0.43-0.064-0.642-0.1c-3.978-0.618-7.776-1.292-11.384-2.016
		c-0.112-0.023-0.227-0.047-0.336-0.07c-21.951-4.438-36.65-10.74-39.414-17.84c-0.312-0.803-0.498-1.615-0.498-2.438
		C55.755,34.912,57.429,32.366,60.488,29.955z"/>
	<path fill="#567B77" d="M224.194,61.74c-1.865,0.211-3.763,0.41-5.686,0.601C220.432,62.153,222.329,61.951,224.194,61.74z"/>
	<path fill="#567B77" d="M195.595,63.984c-2.252,0.105-4.531,0.193-6.832,0.267C191.065,64.177,193.343,64.089,195.595,63.984z"/>
	<path fill="#567B77" d="M237.138,60.017c-1.834,0.281-3.699,0.554-5.605,0.809C233.438,60.571,235.304,60.298,237.138,60.017z"/>
	<path fill="#567B77" d="M202.513,63.612c-1.832,0.111-3.685,0.214-5.553,0.305C198.828,63.826,200.679,63.723,202.513,63.612z"/>
	<path fill="#567B77" d="M217.231,62.466c-4.242,0.407-8.605,0.753-13.084,1.043C208.626,63.219,212.989,62.871,217.231,62.466z"/>
	<path fill="#567B77" d="M231.085,60.887c-2.057,0.275-4.156,0.539-6.289,0.785C226.931,61.426,229.027,61.163,231.085,60.887z"/>
	<path fill="#567B77" d="M179.71,64.456c-2.355,0.032-4.725,0.056-7.115,0.056C174.985,64.511,177.354,64.488,179.71,64.456z"/>
	<path fill="#567B77" d="M120.412,61.672c-2.136-0.246-4.236-0.507-6.298-0.782C116.176,61.166,118.274,61.426,120.412,61.672z"/>
	<path fill="#567B77" d="M187.302,64.292c-1.869,0.056-3.756,0.1-5.652,0.132C183.546,64.388,185.433,64.347,187.302,64.292z"/>
	<path fill="#567B77" d="M141.044,63.509c-4.477-0.29-8.842-0.636-13.078-1.043C132.206,62.874,136.567,63.219,141.044,63.509z"/>
	<path fill="#567B77" d="M126.692,62.34c-1.938-0.19-3.854-0.393-5.736-0.606C122.838,61.948,124.753,62.15,126.692,62.34z"/>
	<path fill="#567B77" d="M172.595,64.511c-2.389,0-4.756-0.023-7.107-0.056C167.839,64.488,170.206,64.511,172.595,64.511z"/>
	<path fill="#567B77" d="M148.203,63.914c-1.854-0.091-3.692-0.19-5.515-0.302C144.511,63.723,146.349,63.823,148.203,63.914z"/>
	<path fill="#567B77" d="M156.438,64.253c-2.299-0.076-4.574-0.164-6.829-0.27C151.864,64.089,154.14,64.177,156.438,64.253z"/>
	<path fill="#567B77" d="M163.54,64.423c-1.898-0.035-3.788-0.076-5.66-0.132C159.752,64.347,161.64,64.388,163.54,64.423z"/>
	<path fill="#567B77" d="M249.194,57.899c-3.602,0.724-7.398,1.395-11.367,2.013C241.796,59.293,245.591,58.62,249.194,57.899z"/>
	<path fill="#567B77" d="M113.646,60.826c-1.908-0.261-3.78-0.53-5.617-0.812C109.866,60.295,111.737,60.565,113.646,60.826z"/>
	<path fill="#567B77" d="M273.06,51.301c-6.32,2.455-14.285,4.658-23.535,6.53C258.78,55.959,266.733,53.756,273.06,51.301z"/>
	<path fill="#567B77" d="M107.387,59.915c-3.974-0.618-7.778-1.292-11.384-2.016C99.61,58.623,103.409,59.296,107.387,59.915z"/>
	<path fill="#334944" d="M95.667,57.829c-9.251-1.869-17.214-4.072-23.533-6.527c5.588-2.171,12.419-4.151,20.334-5.873
		c20.922-4.553,49.102-7.348,80.127-7.348c31.039,0,59.229,2.798,80.152,7.352c7.904,1.721,14.73,3.701,20.312,5.869
		c8.678-3.369,14.291-7.209,15.881-11.319c0.311-0.802,0.496-1.611,0.496-2.431c0-2.648-1.682-5.203-4.764-7.621
		c-5.916-4.638-17.084-8.754-31.926-11.985c-20.924-4.556-49.113-7.354-80.152-7.354c-31.025,0-59.205,2.795-80.127,7.348
		c-14.881,3.238-26.068,7.365-31.979,12.016c-3.06,2.411-4.733,4.957-4.733,7.597c0,0.822,0.186,1.635,0.498,2.438
		C59.017,47.088,73.716,53.39,95.667,57.829z"/>
	<path fill="#A2CD4A" d="M172.595,38.081c-31.025,0-59.205,2.795-80.127,7.348c-7.915,1.722-14.746,3.702-20.334,5.873
		c6.319,2.455,14.282,4.658,23.533,6.527c0.109,0.023,0.224,0.047,0.336,0.07c3.605,0.724,7.41,1.397,11.384,2.016
		c0.212,0.035,0.429,0.067,0.642,0.1c1.837,0.281,3.709,0.551,5.617,0.812c0.157,0.021,0.311,0.044,0.469,0.064
		c2.062,0.275,4.162,0.536,6.298,0.782c0.181,0.023,0.364,0.041,0.544,0.062c1.882,0.214,3.798,0.416,5.736,0.606
		c0.422,0.044,0.846,0.085,1.273,0.126c4.236,0.407,8.602,0.753,13.078,1.043c0.545,0.035,1.095,0.067,1.645,0.103
		c1.822,0.111,3.66,0.211,5.515,0.302c0.47,0.023,0.937,0.05,1.406,0.07c2.255,0.105,4.53,0.193,6.829,0.27
		c0.477,0.015,0.963,0.023,1.441,0.038c1.872,0.056,3.762,0.097,5.66,0.132c0.648,0.012,1.293,0.023,1.947,0.032
		c2.352,0.032,4.719,0.056,7.107,0.056c2.391,0,4.76-0.023,7.115-0.056c0.648-0.009,1.293-0.021,1.939-0.032
		c1.896-0.032,3.783-0.076,5.652-0.132c0.486-0.015,0.979-0.026,1.461-0.041c2.301-0.073,4.58-0.161,6.832-0.267
		c0.457-0.021,0.912-0.044,1.365-0.067c1.868-0.091,3.721-0.193,5.553-0.305c0.545-0.035,1.096-0.067,1.635-0.103
		c4.479-0.29,8.842-0.636,13.084-1.043c0.43-0.041,0.854-0.082,1.277-0.126c1.923-0.19,3.82-0.39,5.686-0.601
		c0.199-0.023,0.402-0.044,0.602-0.067c2.133-0.246,4.232-0.51,6.289-0.785c0.15-0.018,0.298-0.041,0.447-0.062
		c1.906-0.255,3.771-0.527,5.605-0.809c0.23-0.035,0.461-0.07,0.689-0.105c3.969-0.618,7.766-1.289,11.367-2.013
		c0.111-0.023,0.223-0.047,0.33-0.067c9.25-1.872,17.215-4.075,23.535-6.53l0,0l0,0c-5.582-2.168-12.408-4.148-20.312-5.869
		C231.823,40.878,203.634,38.081,172.595,38.081z"/>
</g>
<ellipse fill="#CDE081" cx="204.828" cy="45.823" rx="2.315" ry="2.007"/>
<ellipse fill="#CDE081" cx="216.022" cy="52.453" rx="5.33" ry="4.623"/>
<ellipse fill="#CDE081" cx="129.154" cy="52.453" rx="5.332" ry="4.623"/>
<ellipse fill="#CDE081" cx="178.355" cy="52.127" rx="3.294" ry="2.856"/>
<ellipse fill="#CDE081" cx="151.369" cy="49.271" rx="3.294" ry="2.856"/>
<path fill="#1F2121" d="M228.348,100.744c0,0,40.132-2.492,68.042-15.576c0,0,61.579,94.262-24.273,143.373
	C273.396,225.389,324.499,128.966,228.348,100.744z"/>
<path fill="#A2CD4A" stroke="#577B77" stroke-miterlimit="10" d="M231.417,171.987c4.793-3.423,7.922-9.028,7.922-15.366
	c0-10.339-8.312-18.73-18.618-18.87l-0.11-0.053c0,0-15.094-1.928-27.332,15.673c-8.235,11.846-15.041,14.928-18.609,15.676
	c-0.574-1.056-1.441-1.926-2.496-2.503c0.788-3.618,3.924-10.4,15.654-18.557c17.601-12.237,15.673-27.399,15.673-27.399
	l-0.117-0.23c-0.202-10.25-8.569-18.498-18.866-18.498c-6.338,0-11.942,3.129-15.365,7.92c-3.424-4.791-9.028-7.92-15.367-7.92
	c-10.337,0-18.729,8.312-18.868,18.618l-0.054,0.11c0,0-1.927,15.162,15.672,27.399c11.73,8.156,14.867,14.938,15.653,18.557
	c-1.05,0.574-1.917,1.444-2.49,2.496c-3.583-0.759-10.382-3.856-18.595-15.669c-12.238-17.601-27.352-15.673-27.352-15.673
	l-0.108,0.053c-10.307,0.14-18.618,8.531-18.618,18.87c0,6.338,3.127,11.943,7.92,15.366c-4.793,3.422-7.92,9.026-7.92,15.364
	c0,10.299,8.247,18.664,18.498,18.866l0.229,0.117c0,0,15.113,1.928,27.352-15.671c8.213-11.812,15.012-14.91,18.595-15.671
	c0.58,1.066,1.462,1.942,2.531,2.519c-0.721,3.531-3.759,10.354-15.694,18.652c-17.599,12.239-15.672,27.283-15.672,27.283
	l0.054,0.108c0.14,10.306,8.531,18.618,18.868,18.618c6.339,0,11.943-3.127,15.367-7.92c3.423,4.793,9.027,7.92,15.365,7.92
	c10.297,0,18.664-8.248,18.866-18.498l0.117-0.229c0,0,1.928-15.044-15.673-27.283c-11.934-8.299-14.972-15.121-15.692-18.652
	c1.071-0.576,1.954-1.457,2.534-2.525c3.568,0.75,11.874,3.832,20.109,15.678c12.238,17.599,25.832,15.671,25.832,15.671l0.23-0.117
	c10.248-0.202,18.498-8.567,18.498-18.866C239.339,181.013,236.21,175.409,231.417,171.987z"/>
</svg>
